<?xml version="1.0" encoding="UTF-8" standalone="no"?>
<svg
   width="347.41864pt"
   height="347.06009pt"
   version="1.1"
   viewBox="0 0 347.41864 347.06009"
   id="svg1482"
   sodipodi:docname="noun-change-camera-4737517.svg"
   xmlns:inkscape="http://www.inkscape.org/namespaces/inkscape"
   xmlns:sodipodi="http://sodipodi.sourceforge.net/DTD/sodipodi-0.dtd"
   xmlns="http://www.w3.org/2000/svg"
   xmlns:svg="http://www.w3.org/2000/svg">
  <sodipodi:namedview
     id="namedview1484"
     pagecolor="#ffffff"
     bordercolor="#000000"
     borderopacity="0.25"
     inkscape:showpageshadow="2"
     inkscape:pageopacity="0.0"
     inkscape:pagecheckerboard="0"
     inkscape:deskcolor="#d1d1d1"
     inkscape:document-units="pt"
     showgrid="false" />
  <defs
     id="defs1394" />
  <g
     id="g1480"
     transform="translate(-176.29053,-106.47352)">
    <path
       d="m 338.8,114.69 -6.6641,-1.9609 c -50.062,-13.664 -95.535,-4.7031 -124.77,24.527 v 0.004 c -20.715,21.391 -31.887,50.258 -30.969,80.023 0,43.176 19.543,91.84 53.426,135.52 h -30.07 c -5.7031,-0.11328 -11.246,1.8906 -15.559,5.625 -4.3125,3.7305 -7.0898,8.9297 -7.7969,14.59 -0.61719,6.3086 1.4688,12.586 5.7383,17.27 4.2695,4.6875 10.324,7.3438 16.664,7.3164 h 67.199 c 11.883,0 23.277,-4.7227 31.68,-13.125 8.3984,-8.3984 13.121,-19.793 13.121,-31.676 v -66.25 c 0.11328,-5.7031 -1.8906,-11.246 -5.625,-15.559 -3.7344,-4.313 -8.9297,-7.0859 -14.59,-7.793 -6.3125,-0.61719 -12.586,1.4648 -17.273,5.7383 -4.6836,4.2695 -7.3438,10.324 -7.3125,16.664 v 40.656 c -28.895,-36.902 -44.801,-76.609 -44.801,-108.98 -0.83203,-17.844 5.5664,-35.27 17.754,-48.328 19.602,-19.602 51.969,-22.398 87.754,-11.199 h -0.004 c 7.1211,2.1875 14.867,0.69141 20.66,-3.9922 5.7969,-4.6836 8.8828,-11.941 8.2383,-19.363 -0.54297,-4.5742 -2.4297,-8.8906 -5.418,-12.398 -2.9883,-3.5078 -6.9492,-6.0508 -11.383,-7.3125 z"
       id="path1396"
       style="fill:#ffffff;stroke:none;stroke-opacity:1" />
    <path
       d="m 374.81,402.59 c -6.1094,-2.1289 -12.832,-1.5859 -18.523,1.4922 -5.6875,3.0781 -9.8203,8.4102 -11.383,14.691 -1.1797,5.3984 -0.32422,11.043 2.4023,15.852 2.7305,4.8086 7.1406,8.4336 12.383,10.188 2.7617,0.89453 5.5234,1.7188 8.2891,2.4648 50.062,13.664 95.535,4.7031 124.77,-24.527 l -0.004,-0.004 c 20.676,-21.41 31.805,-50.273 30.859,-80.023 0,-43.176 -19.543,-91.84 -53.426,-135.52 h 31.023 c 6.3398,0.0312 12.395,-2.625 16.664,-7.3125 4.269,-4.6875 6.3555,-10.961 5.7383,-17.27 -0.70703,-5.6602 -3.4844,-10.859 -7.7969,-14.594 -4.3125,-3.7344 -9.8555,-5.7383 -15.559,-5.625 h -66.246 c -11.883,0 -23.277,4.7227 -31.68,13.125 -8.3984,8.3984 -13.121,19.793 -13.121,31.676 v 66.25 c -0.11328,5.7031 1.8906,11.246 5.625,15.559 3.7344,4.313 8.9297,7.0859 14.59,7.793 6.3125,0.61719 12.586,-1.4648 17.273,-5.7383 4.6836,-4.2695 7.3438,-10.324 7.3125,-16.664 v -40.656 c 28.895,36.902 44.801,76.609 44.801,108.98 0.83203,17.844 -5.5664,35.27 -17.754,48.328 -19.32,19.379 -51.07,22.344 -86.238,11.539 z"
       id="path1398"
       style="fill:#ffffff" />
  </g>
</svg>
