<?xml version="1.0" encoding="UTF-8" standalone="no"?>
<svg
   width="410.66pt"
   height="410.66pt"
   version="1.1"
   viewBox="0 0 410.66 410.66"
   id="svg1277"
   sodipodi:docname="noun-record-video-1002132.svg"
   xmlns:inkscape="http://www.inkscape.org/namespaces/inkscape"
   xmlns:sodipodi="http://sodipodi.sourceforge.net/DTD/sodipodi-0.dtd"
   xmlns="http://www.w3.org/2000/svg"
   xmlns:svg="http://www.w3.org/2000/svg">
  <sodipodi:namedview
     id="namedview1279"
     pagecolor="#ffffff"
     bordercolor="#000000"
     borderopacity="0.25"
     inkscape:showpageshadow="2"
     inkscape:pageopacity="0.0"
     inkscape:pagecheckerboard="0"
     inkscape:deskcolor="#d1d1d1"
     inkscape:document-units="pt"
     showgrid="false" />
  <defs
     id="defs1203" />
  <g
     id="g1275"
     transform="translate(-144.67,-74.667998)">
    <path
       d="m 350,74.668 c -113.68,0 -205.33,91.652 -205.33,205.33 0,113.678 91.84,205.33 205.33,205.33 113.49,0 205.33,-91.84 205.33,-205.33 0,-113.49 -91.652,-205.33 -205.33,-205.33 z m 0,376.69 c -93.895,0 -171.36,-76.906 -171.36,-171.36 0,-94.454 77.465,-171.36 171.36,-171.36 93.895,0 171.36,77.281 171.36,171.36 0,94.079 -77.465,171.36 -171.36,171.36 z m 162.59,-171.17 c 0,89.785 -72.801,162.59 -162.59,162.59 -89.789,0 -162.59,-72.801 -162.59,-162.59 0,-89.789 72.801,-162.59 162.59,-162.59 89.789,0 162.59,72.797 162.59,162.59 z"
       id="path1205"
       style="fill:#ffffff" />
  </g>
</svg>
